<svg xmlns="http://www.w3.org/2000/svg" width="69.1" height="75.701" viewBox="0 0 69.1 75.701">
  <g id="noun-female-1156713" transform="translate(-15.5 -12.199)">
    <g id="Group_18065" data-name="Group 18065">
      <path id="Path_25013" data-name="Path 25013" d="M83.3,87.9H16.6a1.11,1.11,0,0,1-1.1-1.1V78.2c0-4.4,4.1-8,12.6-11.1,6.4-2.3,9.6-4.4,10.9-7.3-12-3-13.4-10.3-13.4-10.6a1,1,0,0,1,.5-1.1c.2-.2,6-4.1,6-14.1,0-10.8,2.1-21.8,17.9-21.8S67.9,23.2,67.9,34c0,10,5.7,13.9,6,14.1a1,1,0,0,1,.5,1.1c-.1.3-1.5,7.6-13.3,10.6,1.3,2.9,4.5,4.9,10.9,7.3h0c8.5,3.1,12.6,6.7,12.6,11.1v8.6A1.3,1.3,0,0,1,83.3,87.9Z"/>
    </g>
  </g>
</svg>
