<svg xmlns="http://www.w3.org/2000/svg" width="67.411" height="75.082" viewBox="0 0 67.411 75.082">
  <g id="noun-male-1156711" transform="translate(-17 -12.818)">
    <g id="Group_18066" data-name="Group 18066">
      <path id="Path_25014" data-name="Path 25014" d="M83.2,87.9H18.3A1.324,1.324,0,0,1,17,86.6V78.4c0-4.3,4-7.8,12.1-10.7,9.4-3.4,11.1-6,11.1-11.6a3.829,3.829,0,0,0-.9-2.7c-.8-1.1-1.8-2.7-2.6-6.7-.1-.5-.1-.5-.6-.8-1.4-.7-2.7-1.6-3-6A5.341,5.341,0,0,1,34.4,36c-.1-.8-.3-2-.5-3.4-1-6.3-1.1-14,7.8-17.6,7.9-3.2,15.1-2.6,16.6,0h0a1.854,1.854,0,0,1,.2.7,5.073,5.073,0,0,1,.2.9h.1c1.1-.2,3.5-.5,6,2.3,3.8,4.4,2.6,14.2,2.2,17a5.241,5.241,0,0,1,1.3,3.8c-.3,4.5-1.6,5.4-3,6.1-.5.2-.5.3-.6.8a14.68,14.68,0,0,1-2.6,6.7,3.667,3.667,0,0,0-.9,2.7c0,5.6,1.7,8.2,11.1,11.6h0c8.1,3,12.1,6.5,12.1,10.7v8.2A1.215,1.215,0,0,1,83.2,87.9Z"/>
    </g>
  </g>
</svg>
