<svg xmlns="http://www.w3.org/2000/svg" width="40.201" height="40.208" viewBox="0 0 40.201 40.208">
  <path id="Path_23527" data-name="Path 23527" d="M25.486,30.6a.525.525,0,0,0-.594.144,5.31,5.31,0,0,1-3.843,2.007,5.31,5.31,0,0,1-3.843-2.007.527.527,0,0,0-.594-.144c-2.927,1.2-4.3,4.719-5.35,8.347a.6.6,0,0,0,.129.574,12.957,12.957,0,0,0,19.31,0,.6.6,0,0,0,.129-.574c-1.044-3.628-2.418-7.151-5.345-8.347Zm.763,10.878V37.2a.588.588,0,0,0-.155-.418.521.521,0,0,0-.78,0,.6.6,0,0,0-.155.418v4.748a11.861,11.861,0,0,1-8.219,0V37.2a.6.6,0,0,0-.155-.418.521.521,0,0,0-.78,0,.588.588,0,0,0-.155.418v4.279A12.4,12.4,0,0,1,12.4,38.955c.91-3.081,2.08-6.01,4.279-7.127v0a6.082,6.082,0,0,0,4.37,2.083,6.084,6.084,0,0,0,4.37-2.079c2.2,1.117,3.369,4.046,4.279,7.127a12.394,12.394,0,0,1-3.449,2.523ZM21.049,17.5a5.022,5.022,0,0,0-4.863,5.157,9.75,9.75,0,0,0,1.345,4.575c.993,1.709,2.242,2.65,3.518,2.65s2.525-.941,3.518-2.65a9.752,9.752,0,0,0,1.345-4.575A5.022,5.022,0,0,0,21.049,17.5Zm0,11.225c-2.011,0-3.775-3.785-3.775-6.069v0a3.892,3.892,0,0,1,3.775-4,3.892,3.892,0,0,1,3.775,4c0,2.286-1.764,6.069-3.775,6.069ZM10.29,21.876a.585.585,0,0,0-.177-.349l-.5-.475a.535.535,0,0,0-.233-.129,5.362,5.362,0,0,0-3.4-.042,5.362,5.362,0,0,0-3.4.042.535.535,0,0,0-.233.129l-.506.475a.585.585,0,0,0-.177.349l-.6,4.445,0,0a.594.594,0,0,0,.2.535l.345.289a.518.518,0,0,0,.48.107,5.952,5.952,0,0,1,3.251.132.522.522,0,0,0,.4-.019l.243-.115.243.115a.508.508,0,0,0,.222.051.53.53,0,0,0,.177-.032,5.946,5.946,0,0,1,3.249-.132.519.519,0,0,0,.476-.1l.345-.289a.593.593,0,0,0,.2-.535Zm-8.1,4.167.514-3.793.254-.239v0a4.332,4.332,0,0,1,2.467-.091V26.2a7.188,7.188,0,0,0-3.235-.161Zm4.325.162V21.918a4.332,4.332,0,0,1,2.467.091l.254.239.512,3.793,0,0a7.188,7.188,0,0,0-3.235.161ZM7.2,28.43a.562.562,0,0,1-.544.577H5.292a.52.52,0,0,1-.394-.164.6.6,0,0,1,0-.827.533.533,0,0,1,.394-.164H6.656a.53.53,0,0,1,.385.169.6.6,0,0,1,.16.409Zm32.854-5.421h-.081v-.97a.6.6,0,0,0-.16-.409.528.528,0,0,0-.386-.168H37.272a.53.53,0,0,0-.385.169.593.593,0,0,0-.16.408v2.2H33.483v-2.2a.6.6,0,0,0-.16-.408.53.53,0,0,0-.385-.169H30.785a.53.53,0,0,0-.385.169.593.593,0,0,0-.16.408v.97h-.083a1.027,1.027,0,0,0-.994,1.054v1.5a1.027,1.027,0,0,0,.994,1.054h.083v.97A.593.593,0,0,0,30.4,28a.53.53,0,0,0,.385.169h2.155a.562.562,0,0,0,.544-.577v-2.2h3.245v2.2a.6.6,0,0,0,.16.408.53.53,0,0,0,.385.169h2.155A.536.536,0,0,0,39.813,28a.6.6,0,0,0,.16-.408v-.971h.083a1.027,1.027,0,0,0,.993-1.052V24.063a1.028,1.028,0,0,0-.994-1.054Zm-7.661,4H31.327v-4.4h1.065Zm6.488,0H37.818v-4.4h1.065ZM14.912,9.927a.563.563,0,0,0,.546.575h.683a8.091,8.091,0,0,0,1.317,1.345,12.229,12.229,0,0,0,1.219.843,7.33,7.33,0,0,1,2.009,1.638.526.526,0,0,0,.833,0,7.3,7.3,0,0,1,2.008-1.638,12.056,12.056,0,0,0,1.219-.843c1.918-1.57,2.767-3.511,2.327-5.328h0A3.269,3.269,0,0,0,21.1,5.339a3.438,3.438,0,0,0-3.275-1.47,3.425,3.425,0,0,0-2.7,2.65,4.3,4.3,0,0,0,.313,2.829.563.563,0,0,0-.53.579Zm1.272-3.118A2.312,2.312,0,0,1,18,5.011a2.692,2.692,0,0,1,2.646,1.616.528.528,0,0,0,.922,0,2.692,2.692,0,0,1,2.646-1.616A2.311,2.311,0,0,1,26.021,6.8c.326,1.349-.38,2.853-1.938,4.127a10.963,10.963,0,0,1-1.111.765A9.783,9.783,0,0,0,21.1,13.109,9.713,9.713,0,0,0,19.234,11.7a11.011,11.011,0,0,1-1.112-.766c-.172-.142-.334-.286-.485-.431a.549.549,0,0,0,.5-.4l.056-.179.306.765a.548.548,0,0,0,.5.352h.035a.554.554,0,0,0,.49-.421l.353-1.337.078.289v0a.551.551,0,0,0,.523.418h1.871a.528.528,0,0,0,.4-.162.6.6,0,0,0,0-.829.528.528,0,0,0-.4-.162H20.893L20.4,7a.536.536,0,0,0-1.047,0L18.9,8.722l-.265-.663,0,0a.542.542,0,0,0-.523-.352.551.551,0,0,0-.495.4l-.388,1.242h-.535A3.318,3.318,0,0,1,16.184,6.8ZM6.356,17.236a16.591,16.591,0,0,1,4.705-7.319l-.115.007a.556.556,0,0,1-.576-.543.566.566,0,0,1,.512-.609l1.92-.117a.533.533,0,0,1,.476.242.606.606,0,0,1,.059.555L12.6,11.334a.547.547,0,0,1-.5.357.52.52,0,0,1-.207-.044.587.587,0,0,1-.319-.673A15.424,15.424,0,0,0,7.389,17.6a.537.537,0,0,1-.683.343.585.585,0,0,1-.348-.712ZM28.849,9.514h0a.605.605,0,0,1,.059-.555.531.531,0,0,1,.476-.242l1.92.118v0a.567.567,0,0,1,.512.609.557.557,0,0,1-.576.543L31.1,9.977v0a16.608,16.608,0,0,1,4.638,7.257.61.61,0,0,1-.018.45.562.562,0,0,1-.319.3.518.518,0,0,1-.425-.036.567.567,0,0,1-.271-.349,15.45,15.45,0,0,0-4.087-6.536.584.584,0,0,1-.326.643.5.5,0,0,1-.207.046.545.545,0,0,1-.5-.357Z" transform="translate(-0.947 -3.73)" fill="#ff9c29" stroke="#ff9c29" stroke-width="0.2"/>
</svg>
