<svg xmlns="http://www.w3.org/2000/svg" width="40.4" height="40.4" viewBox="0 0 40.4 40.4">
  <path id="Path_23528" data-name="Path 23528" d="M8.79,226.068a2.613,2.613,0,0,0-2.609,2.609v1.8L.9,231.29a.435.435,0,0,0-.369.43v7.825A5.422,5.422,0,0,0,2.7,243.6a21.79,21.79,0,0,0,3.477,2.286v14.965H2.268a.435.435,0,0,0-.436.436v2.173a2.614,2.614,0,0,0,2.61,2.609H32.268a2.613,2.613,0,0,0,2.609-2.609v-1.74h5.216a.435.435,0,0,0,.436-.433V249.112a2.162,2.162,0,0,0-1.739-2.133v-.968a1.738,1.738,0,0,0-.434-3.421H34.877V231.284H38.79a.435.435,0,0,0,.436-.433v-2.173a2.614,2.614,0,0,0-2.61-2.609Zm0,.87H34.678a2.6,2.6,0,0,0-.671,1.739V242.59H30.528a1.738,1.738,0,0,0-.433,3.421v.968a2.172,2.172,0,0,0-1.74,2.133v7.743a2.607,2.607,0,1,0-1.373,4.862c1.178,0,2.365,0,3.546,0h3.479v1.74a1.726,1.726,0,0,1-1.739,1.739H6.38a2.6,2.6,0,0,0,.671-1.739V245.884a21.859,21.859,0,0,0,3.492-2.3,5.4,5.4,0,0,0,2.16-4.044V231.72a.435.435,0,0,0-.369-.43l-5.283-.813v-1.8a1.726,1.726,0,0,1,1.739-1.739Zm27.827,0a1.726,1.726,0,0,1,1.739,1.739v1.74H34.877v-1.74A1.727,1.727,0,0,1,36.617,226.938Zm-20.871,3.479a.433.433,0,1,0,0,.866H30.965a.433.433,0,1,0,0-.866Zm-9.128.873,5.215.8v4.843H10.505a3.914,3.914,0,0,0-7.779,0H1.4v-4.843Zm9.128,1.733a.435.435,0,0,0,0,.87H30.965a.435.435,0,0,0,0-.87ZM6.618,234.33a3.043,3.043,0,1,1-3.046,3.043A3.035,3.035,0,0,1,6.618,234.33Zm0,1.3a.435.435,0,0,0-.433.436v.867h-.87a.435.435,0,0,0,0,.87h.87v.87a.435.435,0,1,0,.87,0v-.87h.87a.435.435,0,0,0,0-.87h-.87v-.867A.435.435,0,0,0,6.615,235.632Zm9.131,0a.435.435,0,0,0,0,.87H30.965a.435.435,0,0,0,0-.87ZM1.4,237.805H2.726a3.914,3.914,0,0,0,7.78,0h1.326v1.74a4.514,4.514,0,0,1-1.858,3.386,21.381,21.381,0,0,1-3.357,2.186,21.322,21.322,0,0,1-3.345-2.179A4.538,4.538,0,0,1,1.4,239.545Zm14.347.436a.435.435,0,0,0,0,.87H30.965a.435.435,0,0,0,0-.87Zm0,2.609a.435.435,0,0,0,0,.87H30.965a.435.435,0,0,0,0-.87Zm0,2.61a.433.433,0,1,0,0,.866h11.3a.433.433,0,1,0,0-.866Zm14.783,0h7.828a.868.868,0,1,1,0,1.736H30.528a.868.868,0,1,1,0-1.736Zm.436,2.606H37.92v1.306a.435.435,0,0,0,.436.433,1.293,1.293,0,0,1,1.3,1.306v1.737H29.226v-1.737a1.292,1.292,0,0,1,1.3-1.306.435.435,0,0,0,.436-.433Zm-20.871.87a.435.435,0,0,0-.433.436v3.476a.435.435,0,0,0,.433.436h3.479a.435.435,0,0,0,.433-.436v-3.476a.435.435,0,0,0-.433-.436Zm.436.87h2.61v2.609H10.53Zm5.216.87a.435.435,0,0,0,0,.87H26.183a.435.435,0,0,0,0-.87Zm0,1.74a.435.435,0,0,0,0,.87H26.183a.435.435,0,0,0,0-.87Zm13.48,1.3H39.66v5.219H29.226Zm-19.132.437a.435.435,0,0,0-.433.434v3.479a.435.435,0,0,0,.433.436h3.479a.435.435,0,0,0,.433-.436v-3.479a.435.435,0,0,0-.433-.434Zm24.347.434a.435.435,0,0,0-.433.436v.87h-.87a.433.433,0,1,0,0,.866h.87v.873a.435.435,0,0,0,.87,0v-.873h.87a.433.433,0,1,0,0-.866h-.87v-.87A.435.435,0,0,0,34.441,252.588Zm-23.91.436h2.61v2.609H10.53Zm5.216.87a.435.435,0,0,0,0,.87h8.7a.435.435,0,0,0,0-.87Zm0,1.739a.435.435,0,0,0,0,.87h8.7a.435.435,0,0,0,0-.87Zm-5.652,1.737a.435.435,0,0,0-.433.436v3.479a.435.435,0,0,0,.433.433h3.479a.435.435,0,0,0,.433-.433v-3.479a.435.435,0,0,0-.433-.436Zm18.466.869h-1.51a1.744,1.744,0,0,0-1.681,1.309,1.74,1.74,0,0,1,3.191-1.309Zm.748-.433H39.66v3.043H32.033a1.724,1.724,0,0,0,.235-.87,1.746,1.746,0,0,0-1.74-1.74h-1.02A2.6,2.6,0,0,0,29.307,257.806Zm-18.777.433h2.61v2.61H10.53Zm5.216.87a.435.435,0,0,0,0,.87h7.391a.435.435,0,1,0,0-.87Zm11.3,0h3.479a.87.87,0,1,1,0,1.739c-1.173,0-2.354,0-3.524,0a.87.87,0,0,1,.045-1.738Zm-11.3,1.739a.435.435,0,0,0,0,.87h7.391a.435.435,0,1,0,0-.87Zm-13.043.87H6.181v1.74a1.74,1.74,0,0,1-3.479,0Z" transform="translate(-0.329 -225.868)" fill="#2ca6ff" stroke="#2ca6ff" stroke-width="0.4"/>
</svg>
