<svg xmlns="http://www.w3.org/2000/svg" width="25.663" height="40" viewBox="0 0 25.663 40">
  <g id="Group_18062" data-name="Group 18062" transform="translate(-525.338 -479.001)">
    <path id="Path_21392" data-name="Path 21392" d="M46.594,9.049a3.813,3.813,0,0,0,4.729-3.666,3.772,3.772,0,0,0-6.642-2.4,3.9,3.9,0,0,0-.857,2.459,3.72,3.72,0,0,0,2.77,3.608Z" transform="translate(490.643 477.342)" fill="#0fb86e"/>
    <path id="Path_21393" data-name="Path 21393" d="M22.63,32.791a1.793,1.793,0,0,0,1.643.245,1.919,1.919,0,0,0,1.164-1.086c.1-.221.146-.457.221-.686.409-1.317.781-2.648,1.2-3.965.054-.195.171-.414.395-.445q1.617-.237,3.235-.475l0,0a.683.683,0,0,1,.227.04.362.362,0,0,1,.073.238c0,2.5,0,5,0,7.494a3.712,3.712,0,0,0,1.254,2.791,4.384,4.384,0,0,0,1.01.618,11.632,11.632,0,0,0,1.271.358c1.148.279,2.295.572,3.443.849.882.216,1.764.433,2.642.66-.058.243-.125.486-.2.726-.36,1.19-.674,2.393-1.047,3.579-.221.826-.5,1.638-.7,2.469a1.86,1.86,0,0,0,1.463,2.063,1.925,1.925,0,0,0,2.2-1.417c.412-1.562.864-3.115,1.319-4.666.279-.986.554-1.975.833-2.96a2.443,2.443,0,0,0,.052-1.21,2.494,2.494,0,0,0-1.249-1.627,4.981,4.981,0,0,0-1.364-.456c-1.648-.436-3.314-.8-4.956-1.269-.008-2.775,0-5.552,0-8.327a6.533,6.533,0,0,0-.091-1.6A3.208,3.208,0,0,0,35.3,22.895a3.373,3.373,0,0,0-2.42-.478c-.4.055-.8.106-1.2.179-1.033.187-2.077.3-3.11.488-.893.145-1.794.235-2.684.4l0,0a2.694,2.694,0,0,0-1.427.691,2.935,2.935,0,0,0-.792,1.495c-.468,1.528-.968,3.046-1.457,4.568a3.857,3.857,0,0,0-.278,1.309,1.819,1.819,0,0,0,.7,1.251Z" transform="translate(503.404 465.318)" fill="#0fb86e"/>
    <path id="Path_21394" data-name="Path 21394" d="M70.1,27.454a1.874,1.874,0,0,0-1.319-1.274,1.9,1.9,0,0,0-1.459.235,3.861,3.861,0,0,0-.6.58c-.733.783-1.475,1.556-2.218,2.33a12.053,12.053,0,0,1-.836.884c-.311-.367-.66-.7-1-1.045-.675-.676-1.338-1.361-2.016-2.033-.01,1.527-.006,3.054,0,4.58.277.393.644.718.953,1.089.3.287.544.635.871.9a2.283,2.283,0,0,0,1.234.459,2.123,2.123,0,0,0,1.527-.551c.705-.686,1.377-1.408,2.084-2.091.786-.82,1.617-1.6,2.393-2.427a1.723,1.723,0,0,0,.38-1.633Z" transform="translate(480.838 463.008)" fill="#0fb86e"/>
    <path id="Path_21396" data-name="Path 21396" d="M44.771,94.9a13.161,13.161,0,0,0-2.355-.29c-3.251-.243-6.514-.261-9.773-.245-1.674.018-3.347.056-5.018.142-1.174.072-2.35.129-3.518.271h0a3.032,3.032,0,0,0-1.158.321c-.05.232.221.33.4.377a19.434,19.434,0,0,0,2.3.274c1.536.09,3.073.195,4.614.206,1.96.052,3.92.037,5.881.034,2.127,0,4.25-.119,6.372-.246l0,0a14.224,14.224,0,0,0,2.215-.271c.07-.018.141-.035.211-.056.11-.05.3-.089.265-.25-.067-.169-.286-.2-.438-.267Z" transform="translate(502.813 423.004)" fill="#0fb86e"/>
  </g>
</svg>
