<svg xmlns="http://www.w3.org/2000/svg" width="35.933" height="35.933" viewBox="0 0 35.933 35.933">
  <g id="Group_17146" data-name="Group 17146" transform="translate(-255 -206)">
    <path id="Path_21387" data-name="Path 21387" d="M43.435,34.67a1.461,1.461,0,0,0-.977-2.461,1.436,1.436,0,0,0-1.082.391l-2.457,2.293a4.353,4.353,0,0,0-1.377,3.17v8.168l7.794,0V43.828a6.068,6.068,0,0,1,1.839-4.339l3.543-3.432A4.275,4.275,0,0,0,52.013,33v-9.7a1.286,1.286,0,1,0-2.571,0v7.87a.892.892,0,0,1-.287.656c-7.062,6.5-2.891,2.672-6.185,5.692a.892.892,0,1,1-1.208-1.313C43.239,34.851,41.889,36.092,43.435,34.67Z" transform="translate(238.919 195.697)" fill="#fa6ba6"/>
    <path id="Path_21390" data-name="Path 21390" d="M19.292,37.526c-2.8-2.578-4.636-4.267-6.184-5.692a.889.889,0,0,1-.288-.656v-7.87a1.286,1.286,0,0,0-2.571,0V33a4.273,4.273,0,0,0,1.294,3.055l3.544,3.432a6.076,6.076,0,0,1,1.838,4.339v2.407l7.794,0V38.064a4.357,4.357,0,0,0-1.377-3.171L20.887,32.6A1.427,1.427,0,0,0,19.8,32.21a1.461,1.461,0,0,0-.979,2.459L20.5,36.213a.893.893,0,1,1-1.211,1.313Z" transform="translate(244.751 195.697)" fill="#fa6ba6"/>
    <path id="Path_21391" data-name="Path 21391" d="M30.869,9.17a9.409,9.409,0,1,0,9.409,9.409A9.411,9.411,0,0,0,30.869,9.17Zm-5.847,6.722a.891.891,0,0,1,.25-1.232,3.75,3.75,0,0,1,4.482,0,.9.9,0,0,1-.5,1.634.936.936,0,0,1-.5-.152,2,2,0,0,0-2.491,0A.9.9,0,0,1,25.022,15.892Zm9.026,8.4a4.5,4.5,0,0,1-7.678-3.187h9A4.456,4.456,0,0,1,34.048,24.293Zm2.669-8.4a.89.89,0,0,1-1.241.25,2,2,0,0,0-2.491,0,.894.894,0,0,1-1.241-.25.881.881,0,0,1,.241-1.232,3.75,3.75,0,0,1,4.482,0A.891.891,0,0,1,36.717,15.892Z" transform="translate(242.097 196.83)" fill="#fa6ba6"/>
  </g>
</svg>
