<svg xmlns="http://www.w3.org/2000/svg" width="24.168" height="15" viewBox="0 0 24.168 15">
  <path id="eye" d="M13.084,9a3.158,3.158,0,0,0-3.3,3,3.158,3.158,0,0,0,3.3,3,3.158,3.158,0,0,0,3.3-3,3.158,3.158,0,0,0-3.3-3m0,8a5.264,5.264,0,0,1-5.493-5,5.264,5.264,0,0,1,5.493-5,5.264,5.264,0,0,1,5.493,5,5.264,5.264,0,0,1-5.493,5m0-12.5A13.028,13.028,0,0,0,1,12a13.028,13.028,0,0,0,12.084,7.5A13.028,13.028,0,0,0,25.168,12,13.028,13.028,0,0,0,13.084,4.5Z" transform="translate(-1 -4.5)" fill="#bcbcbc"/>
</svg>
