<svg id="noun-feedback-8019978" xmlns="http://www.w3.org/2000/svg" width="16" height="16" viewBox="0 0 16 16">
  <path id="Path_23403" data-name="Path 23403" d="M17.411,6.25a1.714,1.714,0,0,1,1.714,1.714v8a1.714,1.714,0,0,1-1.714,1.714h-5.5L6.934,22.106a.571.571,0,0,1-.951-.427v-4H4.84a1.714,1.714,0,0,1-1.714-1.714v-8A1.714,1.714,0,0,1,4.84,6.25Zm0,1.143H4.84a.571.571,0,0,0-.571.571v8a.571.571,0,0,0,.571.571H6.554a.571.571,0,0,1,.571.571v3.3l4.192-3.726a.57.57,0,0,1,.379-.144h5.714a.571.571,0,0,0,.571-.571v-8a.571.571,0,0,0-.571-.571ZM12.84,13.107a.571.571,0,1,1,0-1.143h3.429a.571.571,0,1,1,0,1.143Zm0-2.286a.571.571,0,1,1,0-1.143h3.429a.571.571,0,1,1,0,1.143ZM8.74,8.5l.691,1.009,1.173.346a.572.572,0,0,1,.291.9l-.746.969.034,1.222a.571.571,0,0,1-.763.554l-1.152-.409-1.152.409a.571.571,0,0,1-.763-.554l.034-1.222-.746-.969a.572.572,0,0,1,.291-.9l1.173-.346L7.8,8.5a.571.571,0,0,1,.943,0ZM8.268,9.832l-.335.489a.574.574,0,0,1-.309.225l-.569.168.361.469a.574.574,0,0,1,.119.364l-.016.592.558-.2a.577.577,0,0,1,.383,0l.558.2L9,11.546a.574.574,0,0,1,.119-.364l.361-.469-.569-.168a.574.574,0,0,1-.309-.225Zm.571,5.561a.571.571,0,1,1,0-1.143h7.429a.571.571,0,1,1,0,1.143Z" transform="translate(-3.126 -6.25)" fill="#5b2ae3" fill-rule="evenodd"/>
</svg>
