<svg xmlns="http://www.w3.org/2000/svg" width="18.539" height="18.724" viewBox="0 0 18.539 18.724">
  <g id="noun-filter-7057305" transform="translate(0.27 0.25)" style="isolation: isolate">
    <path id="Path_21406" data-name="Path 21406" d="M27.939,38.313V29.628l-6.526-7.1a1.278,1.278,0,0,1-.328-1.428,1.2,1.2,0,0,1,1.132-.791H37.769A1.2,1.2,0,0,1,38.9,21.1a1.279,1.279,0,0,1-.328,1.428l-6.526,7.1V35.5ZM22.218,21.221a.286.286,0,0,0-.261.2.392.392,0,0,0,.1.445l.038.037,6.781,7.375v7.285l2.246-1.539V29.282l6.817-7.411a.391.391,0,0,0,.1-.445.291.291,0,0,0-.261-.2ZM31.583,35.262Z" transform="translate(-20.993 -20.313)" fill="#9d9c9f" stroke="#9c9c9e" stroke-width="0.5"/>
  </g>
</svg>
