<svg id="noun-star-7887004" xmlns="http://www.w3.org/2000/svg" width="11.459" height="11.29" viewBox="0 0 11.459 11.29">
  <path id="Path_22004" data-name="Path 22004" d="M12.234,8.051l1.3,2.7,2.9.433a.88.88,0,0,1,.7.61.914.914,0,0,1-.221.92l-2.1,2.1.5,2.971a.909.909,0,0,1-.347.877.853.853,0,0,1-.919.068l-2.6-1.4-2.6,1.4a.853.853,0,0,1-.919-.068.909.909,0,0,1-.347-.877l.5-2.971-2.1-2.1a.914.914,0,0,1-.221-.92.88.88,0,0,1,.7-.61l2.9-.433,1.3-2.7a.862.862,0,0,1,1.565,0Z" transform="translate(-5.722 -7.551)" fill="#ffb800"/>
</svg>
